<svg xmlns="http://www.w3.org/2000/svg" xmlns:xlink="http://www.w3.org/1999/xlink" version="1.1" id="Layer_1" x="0px" y="0px" width="100%" viewBox="0 0 1024 1024" enable-background="new 0 0 1024 1024" xml:space="preserve">
<path fill="#ffffff" opacity="1.000000" stroke="none" d=" M412.888855,544.918213   C405.741302,550.848450 398.089172,555.622681 391.715851,562.134521   C394.124542,566.075745 398.697113,563.650452 401.236603,566.171875   C401.656128,567.388916 400.728333,568.006775 400.008331,568.609680   C393.750702,573.849182 387.428375,579.012024 381.203064,584.289368   C378.820343,586.309265 376.559784,586.764709 373.442352,585.708984   C362.446381,581.985168 352.227203,576.835815 343.100647,569.693298   C340.596985,567.733887 339.080322,567.670227 336.826050,569.891418   C333.307953,573.357910 329.210449,576.090149 331.138977,582.320251   C332.154877,585.602234 330.154694,588.789185 327.595337,591.210938   C311.985718,605.981445 296.644165,621.050171 280.675018,635.421387   C266.138916,648.502930 245.920975,641.274353 242.173935,622.066406   C240.912308,615.599182 242.668213,609.576904 247.315887,605.051697   C263.668640,589.129761 280.216125,573.405945 296.823608,557.748962   C300.720490,554.075134 305.464569,552.866699 310.677063,555.252380   C315.791595,557.593201 317.075897,552.402954 319.858856,550.361145   C322.822266,548.187012 319.699677,546.469299 318.975494,544.483093   C315.613525,535.261963 308.943848,533.570923 299.799377,534.068848   C285.012482,534.874023 270.149811,534.276062 255.319214,534.297852   C251.882736,534.302917 248.598541,533.880493 246.281738,530.999512   C243.809387,527.925049 242.915451,524.482849 244.658340,520.742004   C246.671387,516.421143 250.421265,514.941040 254.884384,514.933716   C268.381897,514.911621 281.879517,514.929199 295.376984,514.968262   C307.116364,515.002319 305.122528,514.964233 302.979248,505.267700   C300.734741,495.113251 300.748169,495.106750 290.426727,495.108032   C243.601883,495.113770 196.777023,495.122467 149.952179,495.126526   C147.457474,495.126740 144.937088,495.307434 142.546097,494.343964   C138.279327,492.624603 135.865082,489.581055 135.678940,484.870575   C135.484390,479.947205 137.637405,476.619965 142.178299,474.714996   C144.733795,473.642914 147.382935,473.723450 150.046066,473.722504   C196.537704,473.705994 243.029327,473.689819 289.520966,473.672333   C291.020630,473.671753 292.520844,473.680023 294.019897,473.646027   C301.160370,473.484131 305.175720,468.198517 303.644287,461.118561   C303.294861,459.503082 302.228821,458.873077 300.874756,458.690918   C299.068390,458.447876 297.228668,458.367676 295.403076,458.365509   C276.739807,458.343475 258.076508,458.352631 239.413208,458.348633   C237.913788,458.348297 236.405151,458.415131 234.916595,458.278564   C229.826080,457.811401 226.263565,454.168518 225.915329,449.175110   C225.617554,444.905060 228.610428,440.834503 233.250504,439.705566   C235.485031,439.161926 237.867874,439.057251 240.184631,439.048737   C262.013794,438.968628 283.843903,438.847382 305.671814,439.005920   C310.029877,439.037537 312.947754,438.033173 314.678802,433.765808   C315.727661,431.180115 317.606110,428.934784 319.078308,426.516113   C321.337433,422.804657 320.714142,421.498993 316.329926,421.365417   C310.835449,421.198059 305.333221,421.275513 299.834290,421.266083   C289.502869,421.248413 279.169403,421.365173 268.840851,421.188690   C262.725555,421.084167 258.755219,417.116516 258.748840,411.677460   C258.742462,406.250702 262.704010,402.670746 269.091888,402.653198   C291.587646,402.591492 314.083923,402.557495 336.579315,402.660522   C340.740540,402.679626 344.427368,401.814880 347.908783,399.536316   C368.844696,385.833710 391.889130,379.996826 416.771790,381.724823   C437.755035,383.182037 456.790802,390.239716 473.230194,403.443695   C505.829224,429.626923 538.242310,456.041656 570.726990,482.367157   C571.867493,483.291382 573.298706,483.980682 573.755066,486.352264   C567.362061,491.570465 560.755371,497.073151 554.033203,502.430817   C524.990356,525.578125 496.024200,548.823730 466.810852,571.754089   C447.113159,587.215332 424.104279,591.868530 399.615936,590.908997   C398.141083,590.851196 396.615326,590.694885 395.291199,589.676514   C395.003754,587.233398 397.125610,586.330688 398.466553,585.039490   C430.751465,553.952393 463.076904,522.907288 495.378540,491.837433   C500.514709,486.897156 500.517731,486.818176 495.420197,481.906921   C471.542328,458.901703 447.616852,435.948669 422.988281,413.738281   C415.061005,406.589355 405.759003,407.987305 396.575195,409.105316   C393.374695,409.494995 393.691925,411.885162 395.920624,413.712341   C400.686432,417.619568 405.502625,421.465698 410.320679,425.308655   C433.763458,444.006653 457.219269,462.688354 480.649963,481.401459   C482.435425,482.827393 484.559265,483.993347 485.644226,487.227905   C461.609741,506.279846 437.384613,525.482971 412.888855,544.918213  M389.705933,518.215027   C398.573517,508.948975 407.402924,499.645844 416.335297,490.442627   C418.589630,488.119904 419.018860,486.275513 416.523926,483.738770   C398.653961,465.569092 380.821655,447.361420 363.121857,429.026337   C359.633972,425.413208 357.032623,425.167603 353.227051,428.723267   C339.239655,441.792328 331.168762,457.707916 329.085205,476.695312   C326.109253,503.815155 335.321991,526.320251 354.819916,545.008057   C358.078857,548.131592 360.407776,548.513367 363.779388,544.867065   C372.031891,535.942078 380.715332,527.415466 389.705933,518.215027  z" data-index="0"/>
<path fill="#ffffff" opacity="1.000000" stroke="none" d=" M846.080261,412.763702   C873.041809,426.961151 887.609985,448.992584 887.997681,479.100281   C888.516785,519.423645 855.283569,552.263916 814.944458,552.288696   C716.302856,552.349426 617.661194,552.344299 519.019592,552.345947   C517.395020,552.345947 515.688538,552.703918 514.168945,551.737793   C517.109680,544.385437 527.581848,536.954773 535.060730,537.058838   C624.696533,538.305908 714.336853,537.362183 803.974731,537.537109   C827.484009,537.582947 845.880188,527.482361 857.105347,506.363953   C875.491638,471.773071 854.919006,429.690186 816.409363,422.769958   C812.680847,422.099945 808.776672,422.280579 804.954041,422.279968   C711.311096,422.265045 617.668091,422.242218 524.025391,422.389587   C518.994263,422.397522 515.069763,421.337494 511.626312,417.589172   C508.186768,413.845062 503.774536,411.033783 500.659332,406.891418   C502.113861,404.990173 503.913086,405.698181 505.444031,405.697754   C609.417664,405.669617 713.391357,405.671997 817.364990,405.697937   C827.363892,405.700439 836.775696,408.272125 846.080261,412.763702  z" data-index="1" style="opacity: 1;"/>
<path fill="#ffffff" opacity="1.000000" stroke="none" d=" M210.304398,454.138489   C205.773849,458.391571 193.890732,459.936676 189.045975,457.083740   C185.546585,455.023041 184.132507,451.698761 184.446472,447.780823   C184.769974,443.743591 187.067566,440.904663 190.937683,439.804413   C195.302307,438.563599 199.871918,438.488708 204.271423,439.462280   C211.000259,440.951324 213.499329,447.003510 210.304398,454.138489  z" data-index="2"/>
<path fill="#ffffff" opacity="1.000000" stroke="none" d=" M209.261353,515.780273   C213.725784,514.339355 217.926010,514.642395 222.026871,515.159546   C227.446350,515.842957 230.717178,519.955139 230.539185,525.137878   C230.374176,529.941833 226.804916,533.672852 221.569473,534.213379   C219.096222,534.468689 216.578003,534.334961 214.081039,534.304932   C208.173080,534.234070 204.997375,532.152710 203.733368,527.589111   C202.377792,522.694946 203.977737,519.065552 209.261353,515.780273  z" data-index="3"/>
<path fill="#ffffff" opacity="1.000000" stroke="none" d=" M220.081268,407.304688   C224.421844,401.921204 237.097153,400.557281 242.099274,404.591492   C247.428070,408.889099 246.260574,417.630127 239.816910,420.124969   C235.054306,421.968964 229.950027,421.814880 225.133453,420.382721   C220.092499,418.883850 218.258530,413.851288 220.081268,407.304688  z" data-index="4"/>
</svg>